<svg preserveAspectRatio="none" width="100%" height="100%" overflow="visible" style="display: block;" viewBox="0 0 35 35" fill="none" xmlns="http://www.w3.org/2000/svg">
<g id="fluent:arrow-up-16-filled">
<path id="Vector" d="M17.4995 30.625C17.0644 30.625 16.6471 30.4521 16.3394 30.1444C16.0317 29.8368 15.8589 29.4195 15.8589 28.9843V9.76277L9.42544 16.9531C9.13459 17.2745 8.72835 17.4677 8.29549 17.4906C7.86262 17.5134 7.4383 17.364 7.11522 17.0751C6.79213 16.7861 6.59654 16.381 6.57117 15.9483C6.5458 15.5155 6.69272 15.0903 6.97982 14.7656L16.2767 4.37496C16.4306 4.20256 16.6192 4.06462 16.8301 3.97017C17.041 3.87573 17.2695 3.8269 17.5006 3.8269C17.7317 3.8269 17.9602 3.87573 18.1711 3.97017C18.382 4.06462 18.5706 4.20256 18.7245 4.37496L28.0214 14.7656C28.1665 14.9259 28.2785 15.1134 28.3509 15.3171C28.4233 15.5209 28.4547 15.737 28.4433 15.9529C28.4319 16.1689 28.3779 16.3805 28.2844 16.5755C28.191 16.7705 28.0599 16.9451 27.8987 17.0893C27.7375 17.2334 27.5494 17.3443 27.3452 17.4155C27.141 17.4868 26.9248 17.5169 26.7089 17.5043C26.493 17.4916 26.2818 17.4364 26.0873 17.3418C25.8928 17.2472 25.719 17.1151 25.5758 16.9531L19.1401 9.76277V28.9843C19.1401 29.4195 18.9673 29.8368 18.6596 30.1444C18.3519 30.4521 17.9346 30.625 17.4995 30.625Z" fill="var(--fill-0, white)" fill-opacity="0.2"/>
</g>
</svg>
