<svg preserveAspectRatio="none" width="100%" height="100%" overflow="visible" style="display: block;" viewBox="0 0 40.6934 40.6934" fill="none" xmlns="http://www.w3.org/2000/svg">
<g id="fluent:globe-48-regular">
<path id="Vector" d="M20.3482 3.39101C29.7127 3.39101 37.3037 10.982 37.3037 20.3466C37.3037 29.7111 29.7127 37.3021 20.3482 37.3021C10.9836 37.3021 3.3926 29.7111 3.3926 20.3466C3.3926 10.982 10.9836 3.39101 20.3482 3.39101ZM20.3482 35.1827C21.4537 35.1827 23.0255 34.2315 24.4472 31.388C24.9965 30.2893 25.4713 28.9956 25.8418 27.5527H14.8546C15.225 28.9956 15.6998 30.2893 16.2492 31.388C17.6709 34.2315 19.2418 35.1827 20.3482 35.1827ZM14.4052 25.4332H26.2911C26.5581 23.8538 26.7065 22.1439 26.7065 20.3466C26.71 18.7857 26.5938 17.2269 26.3589 15.6838H14.3374C14.1025 17.2269 13.9863 18.7857 13.9898 20.3466C13.9898 22.1439 14.1382 23.8538 14.4052 25.4332ZM28.024 27.5527C27.3703 30.3351 26.3487 32.7046 25.0856 34.4104C28.5866 33.2264 31.5216 30.7818 33.3192 27.5527H28.024ZM34.289 25.4332C34.8826 23.8031 35.1856 22.0814 35.1843 20.3466C35.1843 18.718 34.9215 17.1504 34.4366 15.6838H28.5021C28.7199 17.2285 28.8281 18.7866 28.826 20.3466C28.826 22.1184 28.6903 23.8276 28.4377 25.4332H34.289ZM12.2587 25.4332C11.9984 23.7502 11.8686 22.0496 11.8704 20.3466C11.8704 18.7299 11.9831 17.1649 12.1951 15.6838H6.25979C5.76319 17.1882 5.51075 18.7624 5.51205 20.3466C5.51205 22.1337 5.82827 23.8471 6.4073 25.4332H12.2587ZM7.37631 27.5527C9.17409 30.782 12.1095 33.2266 15.6108 34.4104C14.3476 32.7046 13.326 30.3351 12.6724 27.5527H7.37631ZM14.7494 13.5643H25.9469C25.5629 11.9493 25.0499 10.5106 24.4472 9.30511C23.0255 6.46166 21.4545 5.51045 20.3482 5.51045C19.2427 5.51045 17.6709 6.46166 16.2492 9.30511C15.6464 10.5106 15.1335 11.9502 14.7494 13.5643ZM28.1206 13.5643H33.5464C31.778 10.1311 28.744 7.51992 25.0856 6.28278C26.4123 8.07498 27.4729 10.598 28.1206 13.5643ZM15.6108 6.28278C11.9524 7.51992 8.91833 10.1311 7.14996 13.5643H12.5757C13.2234 10.598 14.284 8.07498 15.6108 6.28278Z" fill="var(--fill-0, #0A0D12)"/>
</g>
</svg>
