<svg preserveAspectRatio="none" width="100%" height="100%" overflow="visible" style="display: block;" viewBox="0 0 20.4472 23.5918" fill="none" xmlns="http://www.w3.org/2000/svg">
<g id="ELEMENTS">
<path id="Vector" d="M17.9009 5.04545C17.7417 4.96315 17.5867 4.87293 17.4365 4.77514C16.9997 4.48637 16.5992 4.14613 16.2437 3.76172C15.3541 2.74388 15.0219 1.7113 14.8995 0.988349H14.9044C14.8022 0.388262 14.8445 0 14.8508 0H10.7992V15.6671C10.7992 15.8775 10.7992 16.0854 10.7903 16.2908C10.7903 16.3164 10.7878 16.3399 10.7864 16.3675C10.7864 16.3788 10.7864 16.3906 10.7839 16.4024C10.7839 16.4053 10.7839 16.4083 10.7839 16.4112C10.7412 16.9733 10.561 17.5164 10.2592 17.9925C9.95735 18.4687 9.54312 18.8633 9.05296 19.1418C8.54209 19.4325 7.9643 19.5849 7.37655 19.5842C5.48881 19.5842 3.95886 18.0449 3.95886 16.1439C3.95886 14.2428 5.48881 12.7036 7.37655 12.7036C7.73389 12.7032 8.08903 12.7595 8.42879 12.8702L8.4337 8.74475C7.40228 8.61152 6.35444 8.69349 5.35629 8.98549C4.35814 9.2775 3.43133 9.77319 2.63434 10.4413C1.93599 11.0481 1.34889 11.7721 0.899447 12.5807C0.728415 12.8756 0.0831136 14.0605 0.00496969 15.9836C-0.0441774 17.0752 0.283634 18.2061 0.439922 18.6735V18.6833C0.538216 18.9585 0.919106 19.8977 1.53983 20.6895C2.04037 21.3246 2.63173 21.8825 3.29488 22.3452V22.3354L3.30471 22.3452C5.26617 23.6781 7.44093 23.5906 7.44093 23.5906C7.8174 23.5754 9.07851 23.5906 10.5107 22.9119C12.0991 22.1595 13.0034 21.0384 13.0034 21.0384C13.5811 20.3686 14.0405 19.6052 14.3618 18.7811C14.7285 17.8173 14.8508 16.6614 14.8508 16.1994V7.88762C14.9 7.91711 15.5546 8.3501 15.5546 8.3501C15.5546 8.3501 16.4978 8.95461 17.9692 9.34828C19.0249 9.62842 20.4472 9.68739 20.4472 9.68739V5.66519C19.9489 5.71925 18.9369 5.56198 17.9009 5.04545Z" fill="var(--fill-0, #FDFDFD)"/>
</g>
</svg>
